<svg width="684" height="116" viewBox="0 0 684 116" fill="none" xmlns="http://www.w3.org/2000/svg">
<path d="M52.474 86.8621C50.1625 85.2207 47.445 84.2447 44.6174 84.0403C41.7897 83.836 38.9602 84.411 36.4366 85.7029C33.9131 86.9949 31.7922 88.9542 30.3047 91.3677C28.8173 93.7812 28.0203 96.5564 28.0004 99.3913C27.9805 102.226 28.7385 105.012 30.192 107.447C31.6455 109.881 33.7387 111.869 36.2439 113.197C38.7491 114.524 41.5703 115.139 44.4005 114.974C47.2307 114.809 49.9616 113.871 52.2959 112.263L47.7748 105.702C46.6403 106.484 45.3131 106.94 43.9376 107.02C42.5622 107.1 41.1911 106.801 39.9736 106.156C38.7561 105.511 37.7388 104.545 37.0324 103.362C36.3261 102.179 35.9577 100.825 35.9673 99.4472C35.977 98.0694 36.3643 96.7207 37.0872 95.5478C37.8101 94.3748 38.8408 93.4226 40.0673 92.7947C41.2937 92.1669 42.6688 91.8874 44.043 91.9867C45.4173 92.086 46.7379 92.5604 47.8613 93.3581L52.474 86.8621Z" fill="#797979"/>
<path d="M65.545 86.2513C63.1514 84.7978 60.4087 84.02 57.6084 84.0004C54.8081 83.9808 52.0548 84.7202 49.641 86.1401C47.2273 87.56 45.2433 89.6073 43.8999 92.0644C42.5566 94.5215 41.9039 97.2967 42.0114 100.095C42.1189 102.893 42.9825 105.61 44.5104 107.957C46.0384 110.304 48.1736 112.193 50.6891 113.423C53.2046 114.654 56.0066 115.18 58.7971 114.946C61.5877 114.711 64.2626 113.725 66.5377 112.092L61.8922 105.62C60.7866 106.413 59.4866 106.893 58.1304 107.006C56.7742 107.12 55.4125 106.865 54.19 106.267C52.9674 105.669 51.9297 104.751 51.1872 103.61C50.4446 102.47 50.0249 101.149 49.9727 99.7892C49.9204 98.4292 50.2376 97.0805 50.8905 95.8864C51.5434 94.6922 52.5076 93.6973 53.6806 93.0072C54.8537 92.3172 56.1917 91.9578 57.5527 91.9673C58.9136 91.9768 60.2465 92.3549 61.4098 93.0612L65.545 86.2513Z" fill="#2F2F2F"/>
<path d="M1.09838 3.09838C0.3951 3.80167 0 4.75552 0 5.75012C0 6.74471 0.3951 7.69857 1.09838 8.40185C1.80167 9.10513 2.75552 9.50023 3.75012 9.50023H12.0754L15.0755 21.5531L26.3183 81.4425C26.4792 82.3018 26.9353 83.078 27.6077 83.6367C28.2801 84.1955 29.1266 84.5017 30.0009 84.5025H97.503C98.3773 84.5017 99.2238 84.1955 99.8963 83.6367C100.569 83.078 101.025 82.3018 101.186 81.4425L102.018 77.0023H94.3904H33.1135L23.2657 24.5007H104.238H111.862L112.436 21.4406C112.537 20.8994 112.518 20.3425 112.38 19.8094C112.242 19.2764 111.988 18.7804 111.636 18.3565C111.285 17.9327 110.844 17.5915 110.346 17.3571C109.848 17.1227 109.304 17.001 108.753 17.0005H21.6757L18.6381 4.84259C18.4356 4.03094 17.9676 3.31028 17.3085 2.79521C16.6494 2.28014 15.837 2.00023 15.0005 2H3.75012C2.75552 2 1.80167 2.3951 1.09838 3.09838Z" fill="#797979"/>
<path d="M181.42 68.7273H193.966L200.273 76.8409L206.477 84.0682L218.17 98.7273H204.398L196.352 88.8409L192.227 82.9773L181.42 68.7273ZM219.227 58.0909C219.227 65.7045 217.784 72.1818 214.898 77.5227C212.034 82.8636 208.125 86.9432 203.17 89.7614C198.239 92.5568 192.693 93.9545 186.534 93.9545C180.33 93.9545 174.761 92.5455 169.83 89.7273C164.898 86.9091 161 82.8295 158.136 77.4886C155.273 72.1477 153.841 65.6818 153.841 58.0909C153.841 50.4773 155.273 44 158.136 38.6591C161 33.3182 164.898 29.25 169.83 26.4545C174.761 23.6364 180.33 22.2273 186.534 22.2273C192.693 22.2273 198.239 23.6364 203.17 26.4545C208.125 29.25 212.034 33.3182 214.898 38.6591C217.784 44 219.227 50.4773 219.227 58.0909ZM204.261 58.0909C204.261 53.1591 203.523 49 202.045 45.6136C200.591 42.2273 198.534 39.6591 195.875 37.9091C193.216 36.1591 190.102 35.2841 186.534 35.2841C182.966 35.2841 179.852 36.1591 177.193 37.9091C174.534 39.6591 172.466 42.2273 170.989 45.6136C169.534 49 168.807 53.1591 168.807 58.0909C168.807 63.0227 169.534 67.1818 170.989 70.5682C172.466 73.9545 174.534 76.5227 177.193 78.2727C179.852 80.0227 182.966 80.8977 186.534 80.8977C190.102 80.8977 193.216 80.0227 195.875 78.2727C198.534 76.5227 200.591 73.9545 202.045 70.5682C203.523 67.1818 204.261 63.0227 204.261 58.0909ZM263.469 70.7045V40.6364H277.991V93H264.048V83.4886H263.503C262.321 86.5568 260.355 89.0227 257.605 90.8864C254.878 92.75 251.548 93.6818 247.616 93.6818C244.116 93.6818 241.037 92.8864 238.378 91.2955C235.719 89.7045 233.639 87.4432 232.139 84.5114C230.662 81.5795 229.912 78.0682 229.889 73.9773V40.6364H244.412V71.3864C244.435 74.4773 245.264 76.9205 246.901 78.7159C248.537 80.5114 250.73 81.4091 253.48 81.4091C255.23 81.4091 256.866 81.0114 258.389 80.2159C259.912 79.3977 261.139 78.1932 262.071 76.6023C263.026 75.0114 263.491 73.0455 263.469 70.7045ZM289.608 93V40.6364H304.131V93H289.608ZM296.903 33.8864C294.744 33.8864 292.892 33.1705 291.347 31.7386C289.824 30.2841 289.062 28.5455 289.062 26.5227C289.062 24.5227 289.824 22.8068 291.347 21.375C292.892 19.9205 294.744 19.1932 296.903 19.1932C299.063 19.1932 300.903 19.9205 302.426 21.375C303.972 22.8068 304.744 24.5227 304.744 26.5227C304.744 28.5455 303.972 30.2841 302.426 31.7386C300.903 33.1705 299.063 33.8864 296.903 33.8864ZM339.423 94.0227C334.06 94.0227 329.446 92.8864 325.582 90.6136C321.741 88.3182 318.787 85.1364 316.719 81.0682C314.673 77 313.651 72.3182 313.651 67.0227C313.651 61.6591 314.685 56.9545 316.753 52.9091C318.844 48.8409 321.81 45.6705 325.651 43.3977C329.491 41.1023 334.06 39.9545 339.355 39.9545C343.923 39.9545 347.923 40.7841 351.355 42.4432C354.787 44.1023 357.503 46.4318 359.503 49.4318C361.503 52.4318 362.605 55.9545 362.81 60H349.105C348.719 57.3864 347.696 55.2841 346.037 53.6932C344.401 52.0795 342.253 51.2727 339.594 51.2727C337.344 51.2727 335.378 51.8864 333.696 53.1136C332.037 54.3182 330.741 56.0795 329.81 58.3977C328.878 60.7159 328.412 63.5227 328.412 66.8182C328.412 70.1591 328.866 73 329.776 75.3409C330.707 77.6818 332.014 79.4659 333.696 80.6932C335.378 81.9205 337.344 82.5341 339.594 82.5341C341.253 82.5341 342.741 82.1932 344.06 81.5114C345.401 80.8295 346.503 79.8409 347.366 78.5455C348.253 77.2273 348.832 75.6477 349.105 73.8068H362.81C362.582 77.8068 361.491 81.3295 359.537 84.375C357.605 87.3977 354.935 89.7614 351.526 91.4659C348.116 93.1705 344.082 94.0227 339.423 94.0227ZM385.267 77.9318L385.301 60.5114H387.415L404.188 40.6364H420.858L398.324 66.9545H394.881L385.267 77.9318ZM372.108 93V23.1818H386.631V93H372.108ZM404.835 93L389.426 70.1932L399.108 59.9318L421.847 93H404.835ZM453.006 93H428.256V23.1818H453.21C460.233 23.1818 466.278 24.5795 471.347 27.375C476.415 30.1477 480.313 34.1364 483.04 39.3409C485.79 44.5455 487.165 50.7727 487.165 58.0227C487.165 65.2955 485.79 71.5455 483.04 76.7727C480.313 82 476.392 86.0114 471.278 88.8068C466.188 91.6023 460.097 93 453.006 93ZM443.017 80.3523H452.392C456.756 80.3523 460.426 79.5795 463.403 78.0341C466.403 76.4659 468.653 74.0455 470.153 70.7727C471.676 67.4773 472.438 63.2273 472.438 58.0227C472.438 52.8636 471.676 48.6477 470.153 45.375C468.653 42.1023 466.415 39.6932 463.438 38.1477C460.46 36.6023 456.79 35.8295 452.426 35.8295H443.017V80.3523ZM521.69 94.0227C516.304 94.0227 511.668 92.9318 507.781 90.75C503.918 88.5455 500.94 85.4318 498.849 81.4091C496.759 77.3636 495.713 72.5795 495.713 67.0568C495.713 61.6705 496.759 56.9432 498.849 52.875C500.94 48.8068 503.884 45.6364 507.679 43.3636C511.497 41.0909 515.974 39.9545 521.111 39.9545C524.565 39.9545 527.781 40.5114 530.759 41.625C533.759 42.7159 536.372 44.3636 538.599 46.5682C540.849 48.7727 542.599 51.5455 543.849 54.8864C545.099 58.2045 545.724 62.0909 545.724 66.5455V70.5341H501.509V61.5341H532.054C532.054 59.4432 531.599 57.5909 530.69 55.9773C529.781 54.3636 528.52 53.1023 526.906 52.1932C525.315 51.2614 523.463 50.7955 521.349 50.7955C519.145 50.7955 517.19 51.3068 515.486 52.3295C513.804 53.3295 512.486 54.6818 511.531 56.3864C510.577 58.0682 510.088 59.9432 510.065 62.0114V70.5682C510.065 73.1591 510.543 75.3977 511.497 77.2841C512.474 79.1705 513.849 80.625 515.622 81.6477C517.395 82.6705 519.497 83.1818 521.929 83.1818C523.543 83.1818 525.02 82.9545 526.361 82.5C527.702 82.0455 528.849 81.3636 529.804 80.4545C530.759 79.5455 531.486 78.4318 531.986 77.1136L545.418 78C544.736 81.2273 543.338 84.0455 541.224 86.4545C539.134 88.8409 536.429 90.7045 533.111 92.0455C529.815 93.3636 526.009 94.0227 521.69 94.0227ZM570.134 93.9886C566.793 93.9886 563.815 93.4091 561.202 92.25C558.588 91.0682 556.52 89.3295 554.997 87.0341C553.497 84.7159 552.747 81.8295 552.747 78.375C552.747 75.4659 553.281 73.0227 554.349 71.0455C555.418 69.0682 556.872 67.4773 558.713 66.2727C560.554 65.0682 562.645 64.1591 564.986 63.5455C567.349 62.9318 569.827 62.5 572.418 62.25C575.463 61.9318 577.918 61.6364 579.781 61.3636C581.645 61.0682 582.997 60.6364 583.838 60.0682C584.679 59.5 585.099 58.6591 585.099 57.5455V57.3409C585.099 55.1818 584.418 53.5114 583.054 52.3295C581.713 51.1477 579.804 50.5568 577.327 50.5568C574.713 50.5568 572.634 51.1364 571.088 52.2955C569.543 53.4318 568.52 54.8636 568.02 56.5909L554.588 55.5C555.27 52.3182 556.611 49.5682 558.611 47.25C560.611 44.9091 563.19 43.1136 566.349 41.8636C569.531 40.5909 573.213 39.9545 577.395 39.9545C580.304 39.9545 583.088 40.2955 585.747 40.9773C588.429 41.6591 590.804 42.7159 592.872 44.1477C594.963 45.5795 596.611 47.4205 597.815 49.6705C599.02 51.8977 599.622 54.5682 599.622 57.6818V93H585.849V85.7386H585.44C584.599 87.375 583.474 88.8182 582.065 90.0682C580.656 91.2955 578.963 92.2614 576.986 92.9659C575.009 93.6477 572.724 93.9886 570.134 93.9886ZM574.293 83.9659C576.429 83.9659 578.315 83.5455 579.952 82.7045C581.588 81.8409 582.872 80.6818 583.804 79.2273C584.736 77.7727 585.202 76.125 585.202 74.2841V68.7273C584.747 69.0227 584.122 69.2955 583.327 69.5455C582.554 69.7727 581.679 69.9886 580.702 70.1932C579.724 70.375 578.747 70.5455 577.77 70.7045C576.793 70.8409 575.906 70.9659 575.111 71.0795C573.406 71.3295 571.918 71.7273 570.645 72.2727C569.372 72.8182 568.384 73.5568 567.679 74.4886C566.974 75.3977 566.622 76.5341 566.622 77.8977C566.622 79.875 567.338 81.3864 568.77 82.4318C570.224 83.4545 572.065 83.9659 574.293 83.9659ZM625.412 23.1818V93H610.889V23.1818H625.412ZM680.614 55.5682L667.318 56.3864C667.091 55.25 666.602 54.2273 665.852 53.3182C665.102 52.3864 664.114 51.6477 662.886 51.1023C661.682 50.5341 660.239 50.25 658.557 50.25C656.307 50.25 654.409 50.7273 652.864 51.6818C651.318 52.6136 650.545 53.8636 650.545 55.4318C650.545 56.6818 651.045 57.7386 652.045 58.6023C653.045 59.4659 654.761 60.1591 657.193 60.6818L666.67 62.5909C671.761 63.6364 675.557 65.3182 678.057 67.6364C680.557 69.9545 681.807 73 681.807 76.7727C681.807 80.2045 680.795 83.2159 678.773 85.8068C676.773 88.3977 674.023 90.4205 670.523 91.875C667.045 93.3068 663.034 94.0227 658.489 94.0227C651.557 94.0227 646.034 92.5795 641.92 89.6932C637.83 86.7841 635.432 82.8295 634.727 77.8295L649.011 77.0795C649.443 79.1932 650.489 80.8068 652.148 81.9205C653.807 83.0114 655.932 83.5568 658.523 83.5568C661.068 83.5568 663.114 83.0682 664.659 82.0909C666.227 81.0909 667.023 79.8068 667.045 78.2386C667.023 76.9205 666.466 75.8409 665.375 75C664.284 74.1364 662.602 73.4773 660.33 73.0227L651.261 71.2159C646.148 70.1932 642.341 68.4205 639.841 65.8977C637.364 63.375 636.125 60.1591 636.125 56.25C636.125 52.8864 637.034 49.9886 638.852 47.5568C640.693 45.125 643.273 43.25 646.591 41.9318C649.932 40.6136 653.841 39.9545 658.318 39.9545C664.932 39.9545 670.136 41.3523 673.932 44.1477C677.75 46.9432 679.977 50.75 680.614 55.5682Z" fill="black"/>
<path d="M15.0984 3.09838C14.3951 3.80167 14 4.75552 14 5.75012C14 6.74471 14.3951 7.69857 15.0984 8.40185C15.8017 9.10513 16.7555 9.50023 17.7501 9.50023H26.0754L29.0755 21.5531L40.3183 81.4425C40.4792 82.3018 40.9353 83.078 41.6077 83.6367C42.2801 84.1955 43.1266 84.5017 44.0009 84.5025H111.503C112.377 84.5017 113.224 84.1955 113.896 83.6367C114.569 83.078 115.025 82.3018 115.186 81.4425L116.018 77.0023H108.39H47.1135L37.2657 24.5007H118.238H125.862L126.436 21.4406C126.537 20.8994 126.518 20.3425 126.38 19.8094C126.242 19.2764 125.988 18.7804 125.636 18.3565C125.285 17.9327 124.844 17.5915 124.346 17.3571C123.848 17.1227 123.304 17.001 122.753 17.0005H35.6757L32.6381 4.84259C32.4356 4.03094 31.9676 3.31028 31.3085 2.79521C30.6494 2.28014 29.837 2.00023 29.0005 2H17.7501C16.7555 2 15.8017 2.3951 15.0984 3.09838Z" fill="#2F2F2F"/>
<path d="M28 5.75012C28 4.75552 28.3951 3.80167 29.0984 3.09838C29.8017 2.3951 30.7555 2 31.7501 2H43.0005C43.837 2.00023 44.6494 2.28014 45.3085 2.79521C45.9676 3.31028 46.4356 4.03094 46.6381 4.84259L49.6757 17.0005H136.753C137.304 17.001 137.848 17.1227 138.346 17.3571C138.844 17.5915 139.285 17.9327 139.636 18.3565C139.988 18.7804 140.242 19.2764 140.38 19.8094C140.518 20.3425 140.537 20.8994 140.436 21.4406L129.186 81.4425C129.025 82.3018 128.569 83.078 127.896 83.6367C127.224 84.1955 126.377 84.5017 125.503 84.5025H58.0009C57.1266 84.5017 56.2801 84.1955 55.6077 83.6367C54.9353 83.078 54.4792 82.3018 54.3183 81.4425L43.0755 21.5531L40.0754 9.50023H31.7501C30.7555 9.50023 29.8017 9.10513 29.0984 8.40185C28.3951 7.69857 28 6.74471 28 5.75012ZM51.2657 24.5007L61.1135 77.0023H122.39L132.238 24.5007H51.2657Z" fill="black"/>
<path d="M87 99.5C87 108.06 80.0604 115 71.5 115C62.9396 115 56 108.06 56 99.5C56 90.9396 62.9396 84 71.5 84C80.0604 84 87 90.9396 87 99.5ZM63.9671 99.5C63.9671 103.66 67.3397 107.033 71.5 107.033C75.6603 107.033 79.0329 103.66 79.0329 99.5C79.0329 95.3397 75.6603 91.9671 71.5 91.9671C67.3397 91.9671 63.9671 95.3397 63.9671 99.5Z" fill="black"/>
<path d="M127 99.5C127 108.06 120.06 115 111.5 115C102.94 115 96 108.06 96 99.5C96 90.9396 102.94 84 111.5 84C120.06 84 127 90.9396 127 99.5ZM103.967 99.5C103.967 103.66 107.34 107.033 111.5 107.033C115.66 107.033 119.033 103.66 119.033 99.5C119.033 95.3397 115.66 91.9671 111.5 91.9671C107.34 91.9671 103.967 95.3397 103.967 99.5Z" fill="black"/>
</svg>
